<mxfile host="app.diagrams.net" modified="2023-12-01T13:43:29.584Z" agent="Mozilla/5.0 (Windows NT 10.0; Win64; x64) AppleWebKit/537.36 (KHTML, like Gecko) Chrome/118.0.0.0 Safari/537.36 Edg/118.0.2088.46" version="22.1.5" etag="7_b_ge69sivqTsNWqeqw" type="github">
  <diagram name="Page-1" id="hVx-dNyqCwDmUvH_EkI_">
    <mxGraphModel>
      <root>
        <mxCell id="0" />
        <mxCell id="1" parent="0" />
      </root>
    </mxGraphModel>
  </diagram>
</mxfile>
